<svg xmlns="http://www.w3.org/2000/svg" viewBox="0 0 160 160" role="img" aria-labelledby="title desc">
  <title id="title">Tails coin face</title>
  <desc id="desc">A silver coin with a raised star and laurel wreath based on the generated tails model.</desc>
  <defs>
    <radialGradient id="metal" cx="34%" cy="24%" r="80%">
      <stop offset="0" stop-color="#ffffff"/>
      <stop offset="0.42" stop-color="#e7e7e7"/>
      <stop offset="0.78" stop-color="#b7b7b7"/>
      <stop offset="1" stop-color="#f4f4f4"/>
    </radialGradient>
    <linearGradient id="rim" x1="0" y1="0" x2="1" y2="1">
      <stop offset="0" stop-color="#ffffff"/>
      <stop offset="0.5" stop-color="#9d9d9d"/>
      <stop offset="1" stop-color="#f8f8f8"/>
    </linearGradient>
    <filter id="shadow" x="-20%" y="-20%" width="140%" height="140%">
      <feDropShadow dx="0" dy="2" stdDeviation="2" flood-color="#000000" flood-opacity="0.5"/>
    </filter>
  </defs>
  <circle cx="80" cy="80" r="74" fill="url(#rim)" filter="url(#shadow)"/>
  <circle cx="80" cy="80" r="68" fill="url(#metal)" stroke="#8c8c8c" stroke-width="1.5"/>
  <circle cx="80" cy="80" r="61" fill="none" stroke="#a0a0a0" stroke-width="1"/>
  <path d="M80 42l9 24 26 1-20 16 7 25-22-14-22 14 7-25-20-16 26-1z" fill="#f7f7f7" stroke="#8f8f8f" stroke-width="1.5" filter="url(#shadow)"/>
  <g fill="none" stroke="#9a9a9a" stroke-width="3" stroke-linecap="round">
    <path d="M54 123C31 105 28 78 42 57"/>
    <path d="M106 123c23-18 26-45 12-66"/>
  </g>
  <g fill="#eeeeee" stroke="#969696" stroke-width="1">
    <ellipse cx="43" cy="101" rx="5" ry="11" transform="rotate(-45 43 101)"/>
    <ellipse cx="37" cy="86" rx="5" ry="11" transform="rotate(-65 37 86)"/>
    <ellipse cx="38" cy="69" rx="5" ry="11" transform="rotate(-105 38 69)"/>
    <ellipse cx="47" cy="55" rx="5" ry="11" transform="rotate(-130 47 55)"/>
    <ellipse cx="117" cy="101" rx="5" ry="11" transform="rotate(45 117 101)"/>
    <ellipse cx="123" cy="86" rx="5" ry="11" transform="rotate(65 123 86)"/>
    <ellipse cx="122" cy="69" rx="5" ry="11" transform="rotate(105 122 69)"/>
    <ellipse cx="113" cy="55" rx="5" ry="11" transform="rotate(130 113 55)"/>
  </g>
  <path d="M53 123l27 14 27-14" fill="none" stroke="#969696" stroke-width="3" stroke-linecap="round"/>
</svg>
